<?xml version="1.0" standalone="no"?>
<!DOCTYPE svg PUBLIC "-//W3C//DTD SVG 20010904//EN"
 "http://www.w3.org/TR/2001/REC-SVG-20010904/DTD/svg10.dtd">
<svg version="1.0" xmlns="http://www.w3.org/2000/svg"
 width="128.000000pt" height="128.000000pt" viewBox="0 0 128.000000 128.000000"
 preserveAspectRatio="xMidYMid meet">

<g transform="translate(0.000000,128.000000) scale(0.100000,-0.100000)"
fill="#000000" stroke="none">
<path d="M277 1253 c-4 -3 -7 -26 -7 -50 l0 -43 -54 0 c-75 0 -83 -12 -68
-101 7 -38 24 -93 38 -120 26 -52 100 -133 132 -144 9 -3 33 -31 52 -62 37
-58 115 -125 168 -144 l32 -11 0 -109 0 -108 -62 -3 -63 -3 -3 -52 -3 -52 -47
-3 -47 -3 -3 -92 -3 -92 -117 -3 c-102 -3 -117 -5 -120 -20 -3 -17 28 -18 538
-18 510 0 541 1 538 17 -3 16 -18 18 -120 21 l-117 3 -3 92 -3 92 -52 3 -53 3
0 55 0 54 -60 0 -60 0 0 110 0 109 44 20 c55 24 130 91 161 146 14 22 45 55
69 72 89 63 149 181 144 282 l-3 56 -57 3 -57 3 -3 47 -3 47 -361 3 c-198 1
-363 -1 -367 -5z m700 -150 c-3 -65 -13 -145 -22 -178 -36 -138 -121 -252
-220 -296 -25 -11 -49 -28 -55 -39 -5 -10 -10 -66 -10 -124 l0 -106 -30 0 -30
0 0 113 c0 128 2 123 -83 166 -88 44 -165 154 -202 287 -9 32 -19 112 -22 177
l-6 117 343 0 343 0 -6 -117z m-712 -40 c3 -32 12 -87 20 -123 19 -81 19 -85
-1 -69 -47 39 -104 162 -104 226 0 20 5 23 39 23 l40 0 6 -57z m835 33 c0 -57
-41 -155 -84 -202 l-43 -48 18 79 c10 44 21 106 24 138 l6 57 40 0 c34 0 39
-3 39 -24z m-300 -811 l0 -35 -160 0 -160 0 0 35 0 35 160 0 160 0 0 -35z
m100 -150 l0 -75 -260 0 -260 0 0 75 0 75 260 0 260 0 0 -75z"/>
<path d="M603 1076 l-26 -54 -59 -7 c-32 -4 -61 -11 -64 -17 -4 -5 14 -31 39
-56 45 -46 45 -48 37 -92 -18 -91 -11 -96 69 -56 l48 25 50 -29 c66 -38 76
-30 62 44 l-11 59 46 46 c26 27 42 51 38 57 -4 7 -33 15 -65 19 l-58 7 -27 54
c-14 30 -32 54 -39 54 -7 0 -25 -24 -40 -54z m57 -46 c15 -36 37 -50 79 -50
39 0 39 -6 1 -45 -29 -30 -30 -35 -21 -73 5 -23 7 -42 4 -42 -3 0 -21 10 -40
21 l-35 22 -45 -22 -44 -21 7 46 c6 42 4 48 -27 80 l-33 34 33 0 c44 0 66 13
81 50 7 16 16 30 20 30 4 0 13 -14 20 -30z"/>
</g>
</svg>
