<?xml version="1.0" standalone="no"?>
<!DOCTYPE svg PUBLIC "-//W3C//DTD SVG 20010904//EN"
 "http://www.w3.org/TR/2001/REC-SVG-20010904/DTD/svg10.dtd">
<svg version="1.0" xmlns="http://www.w3.org/2000/svg"
 width="128.000000pt" height="128.000000pt" viewBox="0 0 128.000000 128.000000"
 preserveAspectRatio="xMidYMid meet">

<g transform="translate(0.000000,128.000000) scale(0.100000,-0.100000)"
fill="#000000" stroke="none">
<path d="M625 1225 c-35 -34 -33 -78 5 -117 18 -18 30 -40 30 -56 0 -24 -7
-30 -52 -46 -70 -25 -123 -59 -183 -117 l-50 -48 -100 -3 c-92 -3 -100 -5
-100 -23 0 -18 8 -20 81 -23 l82 -3 -21 -49 -21 -50 -143 0 c-122 0 -145 -2
-150 -16 -10 -27 18 -34 151 -34 l129 0 -7 -31 c-3 -17 -6 -37 -6 -45 0 -9
-19 -14 -62 -16 -57 -3 -63 -5 -66 -25 -3 -22 0 -23 62 -23 36 0 66 -3 66 -7
1 -5 5 -27 9 -50 l8 -42 -91 -3 c-83 -3 -91 -5 -91 -23 0 -18 8 -20 100 -23
l100 -3 24 -51 c13 -27 50 -78 82 -112 153 -164 396 -204 602 -99 34 17 47 29
45 41 -5 23 -30 20 -108 -14 -131 -56 -306 -41 -422 36 -190 126 -260 376
-162 578 106 218 381 316 600 213 230 -108 327 -388 214 -615 -31 -61 -31 -76
0 -76 23 0 72 99 89 178 47 225 -70 456 -280 557 -41 19 -79 35 -86 35 -25 0
-14 57 17 88 38 39 40 83 5 117 -23 24 -30 25 -150 25 -120 0 -127 -1 -150
-25z m273 -49 c7 -34 -25 -46 -121 -46 -48 0 -97 5 -108 10 -19 11 -26 40 -12
54 4 3 59 5 122 4 105 -3 116 -5 119 -22z m-60 -118 c-3 -21 -8 -23 -63 -23
-55 0 -60 2 -63 23 -3 21 0 22 63 22 63 0 66 -1 63 -22z"/>
<path d="M685 906 c-114 -28 -210 -106 -260 -211 -38 -80 -46 -196 -19 -281
54 -174 248 -296 421 -267 132 23 243 104 300 220 25 53 28 68 28 163 0 94 -3
111 -28 161 -56 114 -155 193 -275 218 -65 14 -102 13 -167 -3z m230 -70 c66
-30 133 -95 165 -161 21 -42 25 -64 25 -145 0 -81 -4 -102 -24 -140 -56 -106
-123 -159 -234 -186 -55 -14 -77 -15 -124 -5 -114 23 -198 84 -250 183 -25 47
-28 63 -28 148 0 112 22 167 91 237 102 101 250 128 379 69z"/>
<path d="M754 806 c-10 -26 0 -51 21 -51 16 0 20 7 20 30 0 33 -30 49 -41 21z"/>
<path d="M872 668 c-53 -55 -66 -63 -97 -62 -24 1 -45 10 -63 28 -53 50 -93
24 -43 -28 23 -24 31 -41 31 -68 0 -51 28 -82 75 -82 47 0 75 31 75 83 0 32 8
45 64 100 62 62 74 91 37 91 -9 0 -44 -28 -79 -62z m-74 -132 c4 -21 -14 -37
-35 -29 -14 5 -18 35 -6 47 12 12 38 1 41 -18z"/>
<path d="M490 545 c-16 -20 -4 -35 30 -35 30 0 45 21 27 39 -15 15 -42 14 -57
-4z"/>
<path d="M1013 553 c-7 -2 -13 -13 -13 -24 0 -14 7 -19 29 -19 37 0 50 19 26
37 -20 14 -23 14 -42 6z"/>
<path d="M754 296 c-10 -26 0 -51 21 -51 16 0 20 7 20 30 0 33 -30 49 -41 21z"/>
<path d="M4 385 c-4 -9 -2 -21 4 -27 15 -15 44 -1 40 19 -4 23 -36 29 -44 8z"/>
<path d="M1101 211 c-17 -11 -7 -41 13 -41 22 0 30 20 15 36 -9 8 -19 10 -28
5z"/>
</g>
</svg>
