<?xml version="1.0" standalone="no"?>
<!DOCTYPE svg PUBLIC "-//W3C//DTD SVG 20010904//EN"
 "http://www.w3.org/TR/2001/REC-SVG-20010904/DTD/svg10.dtd">
<svg version="1.0" xmlns="http://www.w3.org/2000/svg"
 width="128.000000pt" height="128.000000pt" viewBox="0 0 128.000000 128.000000"
 preserveAspectRatio="xMidYMid meet">

<g transform="translate(0.000000,128.000000) scale(0.100000,-0.100000)"
fill="#000000" stroke="none">
<path d="M754 1031 c-96 -25 -185 -100 -221 -187 l-18 -44 -42 6 c-89 13 -159
-23 -193 -99 -17 -38 -19 -39 -73 -41 -81 -4 -143 -44 -179 -115 -36 -71 -36
-121 0 -192 20 -40 39 -61 76 -84 47 -28 56 -30 170 -33 124 -3 154 4 143 32
-5 13 -25 16 -120 16 -99 0 -120 3 -158 23 -49 26 -89 89 -89 142 0 89 92 173
175 161 22 -4 49 -7 59 -9 15 -2 22 8 32 48 25 95 98 129 183 86 42 -22 61
-14 61 24 1 30 38 106 68 138 49 53 119 81 197 81 109 0 193 -52 240 -149 23
-47 26 -64 24 -131 l-4 -77 50 -27 c55 -29 95 -90 95 -143 0 -48 -37 -114 -78
-139 -36 -22 -48 -23 -307 -28 -262 -5 -270 -6 -270 -25 0 -20 7 -20 276 -20
l276 0 49 30 c59 36 104 114 104 179 0 65 -41 141 -93 174 l-45 27 -4 80 c-7
130 -67 218 -186 272 -57 27 -147 37 -198 24z"/>
<path d="M804 925 c-4 -9 -2 -21 4 -27 15 -15 44 -1 40 19 -4 23 -36 29 -44 8z"/>
<path d="M904 895 c-4 -10 9 -30 34 -55 29 -27 43 -50 47 -77 8 -48 18 -68 36
-68 19 0 24 50 9 98 -12 41 -80 117 -105 117 -9 0 -18 -7 -21 -15z"/>
<path d="M474 275 c-4 -9 -2 -21 3 -26 14 -14 45 1 41 20 -4 22 -37 26 -44 6z"/>
</g>
</svg>
