<?xml version="1.0" standalone="no"?>
<!DOCTYPE svg PUBLIC "-//W3C//DTD SVG 20010904//EN"
 "http://www.w3.org/TR/2001/REC-SVG-20010904/DTD/svg10.dtd">
<svg version="1.0" xmlns="http://www.w3.org/2000/svg"
 width="512.000000pt" height="512.000000pt" viewBox="0 0 512.000000 512.000000"
 preserveAspectRatio="xMidYMid meet">

<g transform="translate(0.000000,512.000000) scale(0.100000,-0.100000)"
fill="#000000" stroke="none">
<path d="M400 5027 c-49 -16 -133 -102 -148 -153 -17 -59 -17 -1049 0 -1108
16 -55 99 -138 154 -154 59 -17 1369 -17 1428 0 55 16 138 99 154 154 17 58
17 1049 0 1106 -6 22 -31 62 -55 88 -75 83 -41 80 -817 79 -466 -1 -692 -5
-716 -12z m1415 -172 l25 -24 0 -511 0 -511 -25 -24 -24 -25 -671 0 -671 0
-24 25 -25 24 0 511 0 511 25 24 24 25 671 0 671 0 24 -25z"/>
<path d="M845 4702 c-22 -11 -52 -32 -67 -48 -54 -57 -58 -83 -58 -336 0 -262
5 -286 73 -345 46 -40 98 -57 157 -50 70 8 475 213 518 261 68 78 68 194 0
272 -23 26 -91 65 -252 146 -248 124 -294 136 -371 100z m300 -245 c109 -56
204 -110 209 -119 8 -13 8 -23 0 -35 -10 -19 -398 -222 -423 -223 -8 0 -23 7
-33 17 -16 15 -18 35 -18 224 0 175 2 210 16 223 8 9 23 16 32 16 9 -1 107
-47 217 -103z"/>
<path d="M2480 4707 c-49 -16 -133 -102 -148 -153 -17 -59 -17 -1689 0 -1748
16 -55 99 -138 154 -154 30 -9 173 -12 520 -12 l479 0 -80 -80 -80 -80 -145 0
c-182 0 -243 -11 -350 -62 -82 -39 -95 -51 -352 -307 -290 -288 -305 -309
-315 -422 -4 -39 0 -74 11 -108 9 -27 16 -52 16 -55 0 -3 -475 -6 -1055 -6
l-1055 0 0 -720 0 -720 1920 0 1920 0 0 518 0 517 124 42 124 41 436 -88 436
-87 0 577 0 577 -417 -83 c-230 -46 -425 -84 -433 -84 -9 0 -53 28 -99 61
l-82 62 203 206 c139 141 211 221 226 254 l23 47 186 0 c117 0 201 5 227 12
55 16 138 99 154 154 17 59 17 1689 0 1746 -6 22 -31 62 -55 88 -77 86 17 80
-1297 79 -816 -1 -1171 -4 -1196 -12z m2375 -172 l25 -24 0 -831 0 -831 -25
-24 c-24 -25 -26 -25 -203 -25 l-179 0 -7 41 c-4 22 -16 58 -26 80 l-20 39
150 0 150 0 0 80 0 80 -1040 0 -1040 0 0 -80 0 -80 582 0 583 0 -80 -80 -80
-80 -558 0 -558 0 -24 25 -25 24 0 831 0 831 25 24 24 25 1151 0 1151 0 24
-25z m-644 -1603 c94 -49 134 -163 90 -257 -11 -23 -78 -98 -160 -180 l-141
-140 -142 143 -143 142 140 141 c82 82 157 149 180 160 58 27 113 24 176 -9z
m-466 -552 l140 -140 -266 -266 -267 -266 -113 91 c-63 50 -138 103 -166 119
l-53 27 288 288 c158 158 289 287 292 287 3 0 68 -63 145 -140z m-739 -219
l-158 -159 -82 -4 c-122 -7 -197 -52 -251 -150 -26 -45 -30 -64 -31 -131 l0
-78 -44 -44 c-24 -25 -50 -45 -56 -45 -19 0 -55 55 -61 94 -11 69 6 91 275
357 161 161 272 262 297 274 64 30 125 44 200 44 l70 1 -159 -159z m992 -220
l82 -62 -2 -271 -3 -272 -193 -63 c-228 -76 -307 -86 -441 -59 -116 24 -154
43 -477 236 -297 179 -324 201 -324 263 0 67 62 127 132 127 125 0 212 -42
406 -196 l155 -124 213 0 214 0 0 80 0 80 -102 0 -103 0 170 170 c102 102 173
166 179 161 6 -4 48 -36 94 -70z m882 -342 l0 -381 -22 4 c-13 3 -157 31 -320
64 l-298 59 0 255 0 255 303 62 c166 33 310 61 320 62 16 1 17 -23 17 -380z
m-2286 -108 c3 -4 80 -53 171 -107 l165 -99 -265 -265 -265 -265 -142 143
-143 142 230 230 c126 126 233 230 237 230 4 0 9 -4 12 -9z m-526 -268 l-137
-138 -85 -215 c-47 -118 -86 -225 -86 -239 0 -111 120 -231 231 -231 14 0 121
39 239 86 l215 85 315 314 315 314 74 -45 c139 -82 307 -122 466 -110 50 4
102 9 118 12 l27 6 0 -411 0 -411 -1760 0 -1760 0 0 560 0 560 982 0 983 0
-137 -137z m77 -443 c60 -60 107 -111 104 -113 -2 -2 -63 -27 -136 -56 -108
-43 -135 -51 -152 -42 -47 26 -46 43 11 187 29 73 55 134 58 134 3 0 55 -49
115 -110z"/>
<path d="M2640 4000 l0 -400 480 0 480 0 0 400 0 400 -480 0 -480 0 0 -400z
m800 0 l0 -240 -320 0 -320 0 0 240 0 240 320 0 320 0 0 -240z"/>
<path d="M3760 4320 l0 -80 480 0 480 0 0 80 0 80 -480 0 -480 0 0 -80z"/>
<path d="M3760 4000 l0 -80 320 0 320 0 0 80 0 80 -320 0 -320 0 0 -80z"/>
<path d="M4560 4000 l0 -80 80 0 80 0 0 80 0 80 -80 0 -80 0 0 -80z"/>
<path d="M3760 3680 l0 -80 480 0 480 0 0 80 0 80 -480 0 -480 0 0 -80z"/>
<path d="M2640 3360 l0 -80 1040 0 1040 0 0 80 0 80 -1040 0 -1040 0 0 -80z"/>
<path d="M400 1120 l0 -80 600 0 600 0 0 80 0 80 -600 0 -600 0 0 -80z"/>
<path d="M400 800 l0 -80 600 0 600 0 0 80 0 80 -600 0 -600 0 0 -80z"/>
<path d="M2800 640 l0 -240 400 0 400 0 0 240 0 240 -400 0 -400 0 0 -240z
m640 0 l0 -80 -240 0 -240 0 0 80 0 80 240 0 240 0 0 -80z"/>
<path d="M400 480 l0 -80 600 0 600 0 0 80 0 80 -600 0 -600 0 0 -80z"/>
<path d="M80 2480 l0 -800 960 0 960 0 0 800 0 800 -960 0 -960 0 0 -800z
m1760 108 c0 -296 -4 -528 -9 -522 -4 5 -65 104 -134 219 -137 230 -178 278
-272 322 -51 24 -73 28 -145 28 -109 0 -186 -33 -257 -109 -29 -30 -125 -180
-238 -368 l-190 -318 -177 0 -178 0 0 640 0 640 800 0 800 0 0 -532z m-446
-145 c31 -22 74 -86 212 -315 l173 -288 -499 0 -499 0 166 278 c169 281 209
334 266 352 55 16 136 4 181 -27z"/>
<path d="M560 2947 c-49 -16 -133 -102 -148 -153 -28 -94 -8 -169 63 -239 101
-102 229 -102 330 0 98 97 101 222 8 325 -65 72 -158 97 -253 67z m135 -172
c50 -49 15 -135 -55 -135 -41 0 -80 39 -80 80 0 41 39 80 80 80 19 0 40 -9 55
-25z"/>
</g>
</svg>
