<?xml version="1.0" standalone="no"?>
<!DOCTYPE svg PUBLIC "-//W3C//DTD SVG 20010904//EN"
 "http://www.w3.org/TR/2001/REC-SVG-20010904/DTD/svg10.dtd">
<svg version="1.0" xmlns="http://www.w3.org/2000/svg"
 width="128.000000pt" height="128.000000pt" viewBox="0 0 128.000000 128.000000"
 preserveAspectRatio="xMidYMid meet">

<g transform="translate(0.000000,128.000000) scale(0.100000,-0.100000)"
fill="#000000" stroke="none">
<path d="M20 1110 c-19 -19 -20 -33 -20 -385 0 -352 1 -366 20 -385 19 -19 33
-20 210 -20 l190 0 0 -27 c0 -64 -12 -103 -31 -103 -12 0 -19 -7 -19 -20 0
-19 5 -21 68 -18 52 2 67 6 67 18 0 9 -11 16 -29 18 -27 3 -28 6 -22 40 3 20
6 49 6 64 0 20 6 27 23 30 12 2 22 10 22 18 0 13 -34 16 -230 20 l-230 5 -3
42 -3 43 233 2 c199 3 233 5 233 18 0 13 -34 15 -233 18 l-232 2 2 298 3 297
530 0 530 0 5 -230 c4 -196 7 -230 20 -230 13 0 15 34 18 232 2 222 1 234 -18
253 -20 20 -32 20 -555 20 -522 0 -535 0 -555 -20z"/>
<path d="M600 739 c-13 -5 -28 -15 -32 -22 -4 -7 -8 -129 -8 -273 0 -240 1
-262 18 -277 16 -14 45 -17 190 -17 159 0 174 2 192 20 19 19 20 33 20 278 0
250 -1 260 -21 278 -19 17 -40 19 -178 21 -89 1 -167 -2 -181 -8z m324 -35 c9
-3 16 -15 16 -25 0 -18 -10 -19 -170 -19 -161 0 -170 1 -170 19 0 11 6 22 13
24 18 8 292 8 311 1z m16 -254 l0 -170 -170 0 -170 0 0 170 0 170 170 0 170 0
0 -170z m-2 -232 c-3 -23 -5 -23 -168 -23 -163 0 -165 0 -168 23 l-3 22 171 0
171 0 -3 -22z"/>
<path d="M1046 554 c-13 -13 -16 -45 -16 -194 0 -216 -3 -210 127 -210 124 0
123 -2 123 208 0 217 3 212 -125 212 -72 0 -97 -4 -109 -16z m192 -46 c3 -16
-6 -18 -82 -18 -80 0 -86 1 -86 20 0 20 5 21 82 18 70 -3 83 -6 86 -20z m2
-143 l0 -85 -85 0 -85 0 0 85 0 85 85 0 85 0 0 -85z m-2 -147 c-3 -22 -8 -23
-83 -23 -75 0 -80 1 -83 23 -3 21 -1 22 83 22 84 0 86 -1 83 -22z"/>
</g>
</svg>
