<?xml version="1.0" standalone="no"?>
<!DOCTYPE svg PUBLIC "-//W3C//DTD SVG 20010904//EN"
 "http://www.w3.org/TR/2001/REC-SVG-20010904/DTD/svg10.dtd">
<svg version="1.0" xmlns="http://www.w3.org/2000/svg"
 width="512.000000pt" height="512.000000pt" viewBox="0 0 512.000000 512.000000"
 preserveAspectRatio="xMidYMid meet">

<g transform="translate(0.000000,512.000000) scale(0.100000,-0.100000)"
fill="#000000" stroke="none">
<path d="M1730 4670 c-160 -28 -284 -132 -348 -294 -14 -34 -17 -100 -22 -411
l-5 -370 -175 -5 c-195 -6 -215 -11 -268 -75 -16 -20 -34 -53 -41 -74 -14 -49
-15 -670 -1 -722 17 -61 52 -102 109 -131 53 -27 60 -28 218 -28 l163 0 0
-869 c0 -823 1 -872 19 -930 10 -33 30 -80 44 -103 59 -101 191 -188 313 -208
34 -6 374 -10 809 -10 818 0 834 1 937 57 67 36 145 114 181 181 51 95 57 149
57 580 0 218 4 392 9 392 14 0 31 -26 51 -77 10 -26 25 -52 33 -57 34 -22 290
71 370 134 32 26 34 47 7 97 -24 46 -25 74 -3 120 32 69 113 92 186 53 20 -11
43 -20 51 -20 34 0 119 156 156 285 28 98 27 123 -7 136 -16 6 -43 17 -61 25
-102 44 -88 204 21 235 57 17 67 26 67 63 0 79 -123 353 -165 370 -9 3 -34 -3
-55 -14 -23 -12 -59 -20 -86 -20 -39 0 -51 5 -79 33 -46 46 -54 96 -26 154 30
63 27 79 -21 110 -115 72 -320 144 -356 124 -11 -6 -24 -30 -30 -54 -6 -23
-23 -54 -37 -67 l-25 -23 0 499 c0 545 -4 588 -57 686 -36 67 -114 145 -181
181 -103 56 -118 57 -947 56 -418 -1 -780 -5 -805 -9z m1682 -122 c72 -33 137
-98 173 -171 22 -46 29 -76 33 -147 l5 -90 -1082 0 -1081 0 0 80 c0 55 6 96
21 134 37 100 140 190 246 215 21 5 390 9 833 8 l795 -2 57 -27z m208 -903 c0
-235 -4 -395 -9 -395 -25 0 -72 55 -82 96 -7 26 -20 49 -31 55 -38 20 -273
-64 -370 -133 -33 -23 -35 -50 -8 -103 24 -47 25 -64 6 -110 -29 -70 -119 -94
-197 -55 -30 16 -44 18 -59 10 -29 -16 -96 -143 -130 -248 -45 -137 -41 -162
28 -177 71 -15 116 -97 93 -168 -15 -44 -37 -64 -97 -86 -43 -15 -49 -21 -52
-48 -9 -88 125 -383 174 -383 8 0 31 9 51 20 73 39 154 15 188 -56 19 -39 14
-93 -11 -128 -22 -31 -17 -62 14 -86 48 -38 185 -99 274 -122 97 -25 111 -21
124 35 9 44 32 75 65 93 l29 15 0 -171 0 -170 -1080 0 -1080 0 0 615 0 615
379 0 379 0 53 28 c39 20 62 41 84 77 l30 48 3 331 c4 368 -1 410 -50 470 -62
75 -65 76 -495 76 l-383 0 0 225 0 225 1080 0 1080 0 0 -395z m-1410 -158 c20
-7 44 -27 57 -46 23 -34 23 -38 21 -285 l-3 -251 -229 -3 c-149 -1 -234 -6
-243 -13 -16 -14 -17 -51 -1 -67 9 -9 77 -12 245 -12 l233 0 0 -30 c0 -43 -25
-87 -60 -105 -44 -23 -1166 -23 -1210 0 -56 29 -60 51 -60 300 l0 225 109 0
c102 0 111 2 125 22 20 29 20 34 -4 58 -17 17 -33 20 -126 20 l-106 0 4 65 c4
73 28 109 82 124 49 15 1124 12 1166 -2z m1321 -304 c38 -25 52 -28 124 -28
72 0 86 3 124 28 23 15 55 48 70 72 l28 44 64 -23 c35 -12 83 -33 107 -45 41
-21 43 -24 35 -54 -37 -145 56 -285 196 -295 33 -2 74 0 90 6 27 10 33 8 46
-11 18 -26 75 -170 75 -189 0 -7 -20 -25 -44 -39 -66 -40 -101 -107 -101 -189
1 -47 7 -77 23 -107 22 -42 87 -103 109 -103 7 0 13 -6 13 -13 0 -20 -34 -115
-61 -170 -21 -44 -26 -47 -49 -40 -14 4 -52 8 -86 8 -46 -1 -70 -7 -105 -27
-85 -50 -132 -155 -110 -244 15 -58 10 -64 -82 -102 -115 -47 -124 -48 -143
-11 -36 71 -117 118 -200 119 -85 0 -181 -61 -207 -134 -9 -22 -29 -18 -132
25 -103 43 -99 38 -86 98 20 95 -18 187 -100 242 -59 40 -122 47 -205 24 -18
-6 -25 4 -56 72 -20 43 -39 94 -43 113 -6 33 -4 36 32 55 48 25 98 100 107
159 11 69 -14 144 -65 194 -22 23 -50 44 -61 48 -16 5 -19 12 -15 33 8 41 44
132 67 168 17 29 22 32 45 23 44 -17 125 -12 172 11 90 44 145 153 124 250 -6
27 -11 52 -11 54 0 8 84 48 149 71 l64 23 28 -44 c15 -24 47 -57 70 -72z m87
-2165 c-3 -211 -3 -213 -32 -272 -37 -76 -96 -135 -172 -172 l-59 -29 -815 0
-815 0 -63 29 c-79 37 -152 114 -181 191 -19 50 -21 78 -21 260 l0 205 1081 0
1081 0 -4 -212z"/>
<path d="M2352 4368 c-19 -19 -14 -55 10 -72 29 -21 325 -23 350 -3 24 19 28
43 12 66 -14 20 -23 21 -188 21 -120 0 -176 -4 -184 -12z"/>
<path d="M1673 2205 c-25 -17 -30 -54 -11 -73 9 -9 107 -12 379 -12 321 0 370
2 383 16 20 19 20 35 2 60 -14 18 -31 19 -373 22 -314 2 -361 1 -380 -13z"/>
<path d="M1667 2002 c-21 -23 -22 -46 -1 -66 13 -14 62 -16 379 -16 l365 0 16
25 c15 23 15 27 0 50 l-16 25 -364 0 c-339 0 -364 -1 -379 -18z"/>
<path d="M1662 1808 c-19 -19 -14 -55 10 -72 19 -14 72 -16 375 -16 340 0 354
1 373 20 24 24 24 29 4 58 l-15 22 -368 0 c-272 0 -370 -3 -379 -12z"/>
<path d="M1662 1608 c-7 -7 -12 -21 -12 -33 0 -44 5 -45 397 -45 369 0 372 0
384 21 8 16 8 28 0 45 l-11 24 -373 0 c-277 0 -376 -3 -385 -12z"/>
<path d="M1442 3278 c-8 -8 -12 -67 -12 -199 0 -157 3 -190 16 -203 8 -9 22
-16 31 -16 9 0 87 41 174 91 123 70 160 96 165 115 3 13 1 30 -5 38 -21 25
-310 186 -334 186 -12 0 -28 -5 -35 -12z m163 -239 c-37 -22 -68 -39 -71 -39
-2 0 -4 36 -4 79 l0 80 71 -41 71 -41 -67 -38z"/>
<path d="M3575 2949 c-35 -5 -94 -25 -141 -49 -171 -84 -274 -250 -274 -439 0
-117 30 -210 97 -298 187 -248 538 -271 751 -49 95 98 142 212 142 341 0 140
-46 250 -145 351 -114 116 -268 167 -430 143z m157 -100 c121 -25 234 -115
286 -227 24 -50 27 -69 27 -162 0 -97 -2 -110 -31 -170 -39 -83 -106 -150
-192 -192 -62 -31 -73 -33 -167 -33 -90 1 -106 4 -165 31 -82 38 -149 104
-192 185 -31 61 -33 69 -33 174 0 98 3 116 27 167 51 109 157 196 273 224 65
16 102 17 167 3z"/>
<path d="M3556 2715 c-60 -21 -108 -66 -143 -134 -54 -102 -41 -213 34 -300
109 -129 307 -128 417 1 121 141 61 371 -114 433 -53 19 -142 19 -194 0z m139
-86 c56 -16 92 -44 116 -92 45 -87 5 -197 -85 -238 -52 -23 -90 -24 -141 0
-71 33 -105 86 -105 163 0 92 62 156 170 177 3 0 23 -4 45 -10z"/>
<path d="M2449 1060 c-131 -71 -143 -248 -22 -334 74 -52 180 -45 242 16 46
45 63 82 63 142 1 110 -73 188 -186 193 -46 2 -70 -2 -97 -17z m147 -95 c34
-23 48 -68 34 -109 -33 -100 -173 -84 -187 21 -5 37 -2 45 25 73 34 34 92 41
128 15z"/>
<path d="M4150 4667 c-75 -38 -28 -154 54 -133 62 15 72 102 16 131 -35 18
-38 18 -70 2z"/>
<path d="M496 4559 c-36 -28 -36 -80 0 -108 30 -24 61 -26 86 -7 43 32 38 103
-8 125 -35 16 -47 14 -78 -10z"/>
<path d="M4371 4366 c-89 -32 -161 -136 -161 -231 1 -176 187 -296 345 -221
116 55 170 175 133 300 -16 55 -99 138 -154 154 -51 15 -118 14 -163 -2z m175
-117 c57 -53 70 -127 34 -187 -58 -95 -192 -95 -250 0 -40 66 -17 155 52 199
46 28 128 22 164 -12z"/>
<path d="M1005 4078 c-49 -26 -58 -69 -24 -112 27 -34 71 -35 104 -1 14 13 25
31 25 39 0 28 -22 64 -47 75 -29 13 -33 13 -58 -1z"/>
<path d="M4330 3620 c-45 -45 -11 -120 53 -120 43 0 67 26 67 73 0 26 -6 40
-22 51 -31 22 -74 20 -98 -4z"/>
<path d="M540 2340 c-45 -45 -11 -120 53 -120 42 0 67 26 67 68 0 41 -31 72
-70 72 -17 0 -39 -9 -50 -20z"/>
<path d="M633 1640 c-102 -51 -153 -129 -161 -246 -4 -62 -1 -79 23 -133 86
-190 329 -237 475 -91 59 59 85 122 84 210 0 86 -22 139 -83 203 -56 59 -104
80 -196 85 -74 3 -85 1 -142 -28z m223 -88 c35 -19 82 -79 95 -121 25 -85 -19
-188 -97 -227 -52 -25 -138 -25 -183 1 -19 11 -48 37 -64 58 -26 31 -32 49
-35 101 -4 64 9 107 47 150 50 57 167 76 237 38z"/>
<path d="M4477 1552 c-40 -45 -6 -122 53 -122 59 0 90 67 54 118 -20 28 -83
31 -107 4z"/>
<path d="M3952 683 c-7 -3 -19 -18 -28 -35 -19 -37 -5 -80 32 -97 37 -16 52
-14 79 14 59 58 -5 150 -83 118z"/>
<path d="M1082 567 c-40 -43 -19 -109 39 -122 38 -9 82 31 82 75 0 63 -78 93
-121 47z"/>
</g>
</svg>
