<?xml version="1.0" standalone="no"?>
<!DOCTYPE svg PUBLIC "-//W3C//DTD SVG 20010904//EN"
 "http://www.w3.org/TR/2001/REC-SVG-20010904/DTD/svg10.dtd">
<svg version="1.0" xmlns="http://www.w3.org/2000/svg"
 width="512.000000pt" height="512.000000pt" viewBox="0 0 512.000000 512.000000"
 preserveAspectRatio="xMidYMid meet">

<g transform="translate(0.000000,512.000000) scale(0.100000,-0.100000)"
fill="#000000" stroke="none">
<path d="M145 4895 c-51 -18 -120 -91 -134 -141 -16 -56 -15 -3033 0 -3089 15
-53 91 -129 144 -144 28 -8 301 -11 898 -11 471 0 857 -1 857 -2 0 -2 -29
-176 -65 -387 -36 -212 -65 -388 -65 -393 0 -4 -33 -8 -72 -8 -89 0 -157 -28
-207 -85 -57 -65 -65 -95 -66 -243 l0 -134 28 -24 28 -24 1070 0 1070 0 24 24
c31 31 39 78 32 195 -6 109 -19 150 -68 206 -50 57 -118 85 -206 85 -40 0 -73
4 -73 8 0 5 -29 181 -65 393 -36 211 -65 385 -65 387 0 1 277 2 615 2 l616 0
24 25 c32 31 32 69 0 100 l-24 25 -2121 0 -2121 0 -24 25 -25 24 0 1501 0
1501 25 24 24 25 2361 0 2361 0 24 -25 25 -24 0 -1501 0 -1501 -25 -24 c-22
-23 -32 -25 -115 -25 -83 0 -93 -2 -115 -25 -14 -13 -25 -36 -25 -50 0 -14 11
-37 25 -50 22 -23 32 -25 117 -25 51 0 111 5 133 11 53 15 129 91 144 144 15
57 15 3033 0 3090 -15 53 -91 129 -144 144 -29 8 -707 11 -2410 11 -2018 -1
-2376 -3 -2410 -15z m2915 -3391 c0 -7 119 -723 126 -756 l6 -28 -390 0 -391
0 -20 -26 c-26 -33 -27 -65 -2 -95 l19 -24 535 -5 c508 -5 536 -6 556 -24 25
-23 41 -75 41 -138 l0 -48 -980 0 -980 0 0 48 c0 63 16 115 41 138 19 17 43
19 266 24 242 5 245 5 264 29 25 30 24 62 -2 95 -20 25 -24 26 -121 26 l-100
0 6 28 c7 33 126 749 126 756 0 4 225 6 500 6 275 0 500 -2 500 -6z"/>
<path d="M303 4650 c-55 -22 -53 31 -53 -1235 0 -1267 -3 -1207 55 -1233 18
-8 100 -12 261 -12 l235 0 24 25 c32 31 32 69 0 100 -24 25 -25 25 -225 25
l-200 0 0 1095 0 1095 2160 0 2160 0 0 -1095 0 -1095 -1810 0 -1811 0 -24 -25
c-32 -31 -32 -69 0 -100 l24 -25 1845 0 c1409 0 1851 3 1871 12 58 26 55 -34
55 1233 0 1274 3 1213 -56 1235 -33 13 -4480 12 -4511 0z"/>
<path d="M2705 4348 c-44 -23 -45 -31 -45 -279 0 -237 0 -238 24 -266 l24 -28
874 -3 c480 -1 888 0 907 3 18 4 44 17 57 30 24 24 24 25 24 260 l0 237 -29
29 -29 29 -894 0 c-627 -1 -899 -4 -913 -12z m1715 -283 l0 -145 -805 0 -805
0 0 145 0 145 805 0 805 0 0 -145z"/>
<path d="M1354 4253 c-12 -2 -33 -16 -48 -32 -22 -23 -28 -43 -38 -115 l-11
-87 -41 -21 c-22 -11 -57 -31 -77 -45 l-36 -24 -69 32 c-85 38 -135 41 -170 8
-40 -38 -164 -262 -164 -297 0 -37 30 -74 102 -126 l54 -39 -1 -90 -1 -90 -62
-48 c-78 -62 -96 -89 -89 -133 7 -42 133 -261 165 -287 35 -27 82 -24 164 11
l71 30 36 -23 c20 -14 55 -34 78 -45 40 -21 41 -23 48 -84 9 -87 22 -124 52
-148 23 -18 40 -20 190 -20 l165 0 28 28 c21 21 29 42 34 83 14 116 18 128 35
134 10 3 44 21 76 41 l59 35 69 -30 c76 -34 131 -39 164 -16 21 15 155 239
167 282 12 39 -18 86 -87 138 l-66 50 -1 91 0 90 66 49 c78 57 102 99 84 148
-20 58 -142 258 -167 274 -36 24 -77 19 -161 -17 -65 -28 -76 -30 -90 -17 -10
8 -43 29 -74 46 -61 35 -57 26 -74 154 -8 59 -34 93 -82 107 -35 9 -253 12
-298 3z m239 -208 c16 -114 24 -125 114 -175 45 -25 103 -58 129 -75 l48 -29
70 26 c39 14 78 29 88 33 13 5 25 -9 57 -62 23 -38 41 -71 41 -74 0 -3 -29
-26 -64 -52 -36 -26 -68 -58 -72 -69 -12 -38 -7 -293 6 -314 6 -10 36 -37 67
-59 30 -22 57 -43 59 -47 8 -13 -77 -150 -89 -145 -160 68 -170 69 -247 12
-26 -19 -73 -46 -104 -60 -69 -30 -85 -55 -98 -150 l-11 -75 -83 0 c-93 0 -84
-10 -99 105 -10 71 -18 81 -93 119 -37 19 -91 50 -121 70 -29 20 -61 36 -72
36 -10 0 -53 -14 -95 -30 -42 -17 -77 -29 -78 -28 -30 47 -76 132 -76 138 0 5
25 28 55 50 82 60 83 64 83 225 0 161 -2 165 -83 226 -30 23 -55 45 -55 50 0
6 65 125 76 138 2 2 38 -11 80 -28 90 -38 102 -37 194 23 36 23 84 51 107 61
24 10 49 28 57 40 11 17 36 143 36 181 0 3 37 4 83 2 l82 -3 8 -60z"/>
<path d="M1428 3697 c-98 -28 -174 -103 -203 -200 -18 -62 -19 -88 -2 -155 68
-260 427 -291 543 -47 33 70 33 170 0 241 -59 128 -206 198 -338 161z m114
-147 c20 -6 50 -26 67 -46 25 -28 31 -43 31 -82 0 -86 -54 -144 -134 -144 -59
0 -102 26 -126 77 -25 51 -25 69 0 123 15 33 29 47 62 62 50 23 52 23 100 10z"/>
<path d="M3092 3547 c-40 -43 -19 -108 40 -122 13 -3 328 -4 701 -3 l679 3 25
29 c27 31 25 66 -4 99 -15 16 -62 17 -718 17 l-702 0 -21 -23z"/>
<path d="M2692 3197 c-40 -43 -19 -108 40 -122 13 -3 418 -4 901 -3 l879 3 25
29 c27 31 25 66 -4 99 -15 16 -72 17 -918 17 l-902 0 -21 -23z"/>
<path d="M2692 2847 c-40 -43 -19 -108 40 -122 13 -3 306 -4 651 -3 l629 3 25
29 c27 31 25 66 -4 99 -15 16 -60 17 -668 17 l-652 0 -21 -23z"/>
<path d="M2196 1969 c-19 -15 -26 -30 -26 -54 0 -24 7 -39 26 -54 26 -20 38
-21 364 -21 326 0 338 1 364 21 19 15 26 30 26 54 0 24 -7 39 -26 54 -26 20
-38 21 -364 21 -326 0 -338 -1 -364 -21z"/>
</g>
</svg>
