<?xml version="1.0" standalone="no"?>
<!DOCTYPE svg PUBLIC "-//W3C//DTD SVG 20010904//EN"
 "http://www.w3.org/TR/2001/REC-SVG-20010904/DTD/svg10.dtd">
<svg version="1.0" xmlns="http://www.w3.org/2000/svg"
 width="512.000000pt" height="512.000000pt" viewBox="0 0 512.000000 512.000000"
 preserveAspectRatio="xMidYMid meet">

<g transform="translate(0.000000,512.000000) scale(0.100000,-0.100000)"
fill="#000000" stroke="none">
<path d="M159 5106 c-56 -20 -96 -53 -126 -104 l-28 -47 -3 -1945 c-3 -2157
-8 -1989 62 -2068 66 -75 18 -72 888 -72 l777 0 20 26 c28 35 26 67 -3 101
l-24 28 -766 5 c-750 5 -765 5 -780 25 -14 18 -15 207 -16 1608 l0 1587 2400
0 2400 0 0 -1588 c0 -1585 0 -1588 -20 -1610 -18 -19 -32 -22 -93 -22 -127 0
-167 -21 -167 -89 0 -59 26 -71 153 -71 129 0 173 15 223 72 70 79 65 -89 62
2069 l-3 1946 -30 49 c-19 30 -49 60 -79 79 l-49 30 -2381 2 c-1929 2 -2388 0
-2417 -11z m4776 -171 l25 -24 0 -251 0 -250 -2400 0 -2400 0 0 250 0 251 25
24 24 25 2351 0 2351 0 24 -25z"/>
<path d="M421 4734 c-28 -35 -27 -75 2 -102 50 -47 127 -15 127 51 0 70 -87
104 -129 51z"/>
<path d="M762 4737 c-47 -50 -15 -127 51 -127 69 0 101 77 52 125 -31 32 -74
33 -103 2z"/>
<path d="M1107 4748 c-29 -23 -39 -66 -22 -97 16 -32 33 -41 75 -41 34 0 70
40 70 77 0 53 -80 93 -123 61z"/>
<path d="M1761 4734 c-28 -35 -26 -67 3 -101 l24 -28 1364 -3 c749 -1 1378 0
1396 3 69 13 97 88 49 133 l-23 22 -1396 0 -1397 0 -20 -26z"/>
<path d="M1455 3814 c-50 -18 -102 -67 -126 -119 -17 -36 -19 -68 -19 -325 0
-256 2 -289 19 -326 24 -53 91 -109 146 -123 69 -17 409 -14 444 4 48 24 57
87 18 123 -22 21 -32 22 -225 22 -189 0 -203 1 -222 20 -19 19 -20 33 -20 284
0 262 0 265 22 280 20 14 119 16 865 16 830 0 843 0 863 -20 19 -19 20 -33 20
-280 0 -319 9 -300 -139 -300 -96 0 -100 -1 -120 -26 -35 -45 -26 -95 20 -119
34 -18 170 -20 234 -4 55 14 122 70 146 123 17 37 19 70 19 326 0 318 -3 332
-71 397 -69 65 -32 63 -978 62 -724 0 -862 -3 -896 -15z"/>
<path d="M4165 3775 c-23 -22 -25 -32 -25 -120 0 -88 2 -98 25 -120 26 -27 51
-31 88 -14 36 16 47 50 47 140 0 76 -2 82 -29 110 -36 36 -73 37 -106 4z"/>
<path d="M3765 3375 c-33 -33 -32 -70 4 -106 28 -27 34 -29 110 -29 90 0 124
11 140 47 17 37 13 62 -14 88 -22 23 -32 25 -120 25 -88 0 -98 -2 -120 -25z"/>
<path d="M4432 3377 c-29 -31 -29 -87 -1 -113 18 -16 37 -19 121 -19 93 0 101
2 119 24 26 32 25 82 -4 109 -21 19 -35 22 -118 22 -87 0 -97 -2 -117 -23z"/>
<path d="M2315 3371 c-56 -25 -101 -66 -133 -120 -24 -41 -27 -55 -26 -131 1
-78 19 -151 217 -884 120 -440 216 -801 214 -802 -2 -2 -64 41 -138 96 -74 55
-159 113 -189 129 -153 81 -318 58 -424 -60 -104 -116 -102 -282 7 -423 35
-46 537 -500 1027 -929 136 -120 227 -184 311 -219 43 -18 74 -22 154 -22 96
0 115 4 520 113 236 64 444 126 475 141 70 35 153 123 188 197 20 44 27 78 30
143 4 82 0 100 -108 510 -61 234 -147 562 -191 730 -44 168 -89 333 -100 367
-24 72 -80 141 -147 181 -42 24 -57 27 -137 27 -80 0 -95 -3 -136 -27 -46 -27
-47 -27 -64 -8 -10 11 -42 32 -72 46 -88 44 -170 37 -285 -24 -4 -2 -18 19
-32 46 -66 129 -227 183 -357 119 -29 -14 -55 -24 -58 -22 -2 3 -43 152 -92
332 -48 180 -95 344 -105 365 -21 47 -81 103 -138 129 -55 25 -157 25 -211 0z
m165 -156 c42 -22 26 30 250 -810 93 -352 174 -650 180 -662 14 -32 55 -56 85
-49 32 8 65 44 65 72 0 12 -32 140 -71 284 -50 187 -69 272 -65 295 11 56 78
100 135 89 50 -10 77 -51 106 -154 56 -205 54 -199 85 -215 40 -20 54 -19 87
9 25 22 28 30 28 89 0 73 16 99 73 124 26 11 41 12 66 3 48 -15 72 -47 91
-118 27 -95 81 -127 139 -81 21 17 26 29 26 65 0 116 154 145 218 42 22 -35
38 -95 236 -853 69 -264 136 -523 150 -575 31 -115 33 -189 5 -250 -23 -51
-50 -83 -95 -110 -35 -22 -821 -237 -900 -246 -113 -14 -212 37 -405 207 -730
646 -996 890 -1022 937 -87 159 58 297 228 216 19 -9 143 -96 277 -195 210
-154 248 -179 280 -179 28 0 41 6 57 26 12 15 21 34 21 43 0 9 -113 434 -250
945 -138 511 -250 944 -250 963 0 50 54 103 104 103 21 0 50 -7 66 -15z"/>
<path d="M4162 3107 c-19 -21 -22 -35 -22 -118 0 -87 2 -97 23 -117 29 -27 77
-28 108 -3 22 18 24 26 24 121 0 95 -2 103 -24 121 -32 26 -82 25 -109 -4z"/>
<path d="M772 2857 c-18 -19 -22 -35 -22 -85 l0 -61 -43 -19 c-51 -23 -100
-70 -130 -126 -18 -34 -22 -58 -22 -136 0 -142 18 -174 199 -342 166 -155 186
-182 186 -263 0 -52 -3 -60 -34 -91 -29 -29 -41 -34 -80 -34 -36 0 -52 6 -77
28 -27 24 -32 37 -38 95 -8 74 -20 93 -68 103 -27 5 -37 1 -63 -24 -25 -26
-30 -38 -30 -79 0 -116 61 -215 158 -258 l42 -19 0 -87 c0 -83 1 -89 26 -108
35 -28 67 -26 101 3 26 23 28 30 32 110 l3 87 32 13 c47 19 104 73 129 120 18
34 22 57 22 141 0 147 -18 178 -198 346 -155 144 -187 188 -187 256 0 103 85
162 170 118 44 -23 60 -53 60 -113 0 -64 30 -102 80 -102 19 0 40 9 55 25 21
20 25 34 25 83 0 112 -45 192 -136 243 -52 30 -54 32 -54 74 0 52 -14 93 -38
111 -28 21 -76 17 -100 -9z"/>
</g>
</svg>
