<?xml version="1.0" standalone="no"?>
<!DOCTYPE svg PUBLIC "-//W3C//DTD SVG 20010904//EN"
 "http://www.w3.org/TR/2001/REC-SVG-20010904/DTD/svg10.dtd">
<svg version="1.0" xmlns="http://www.w3.org/2000/svg"
 width="512.000000pt" height="512.000000pt" viewBox="0 0 512.000000 512.000000"
 preserveAspectRatio="xMidYMid meet">

<g transform="translate(0.000000,512.000000) scale(0.100000,-0.100000)"
fill="#000000" stroke="none">
<path d="M2448 5109 c-17 -9 -18 -44 -18 -497 0 -366 3 -491 12 -500 9 -9 273
-12 1126 -12 l1114 0 181 -160 c190 -167 223 -186 247 -141 6 13 10 234 10
648 0 553 -2 631 -16 651 l-15 22 -1312 0 c-873 -1 -1318 -4 -1329 -11z m2570
-626 c1 -293 -1 -533 -4 -533 -3 0 -58 46 -122 103 -64 56 -129 112 -146 125
l-30 22 -1093 0 -1093 0 0 410 0 410 1243 -2 1242 -3 3 -532z"/>
<path d="M2927 4883 c-8 -10 -28 -46 -42 -80 -29 -67 -27 -65 -130 -79 -62 -8
-95 -28 -95 -56 0 -14 23 -46 61 -84 l61 -61 -12 -76 c-23 -140 0 -159 118
-99 l77 40 79 -40 c122 -62 144 -40 115 117 l-11 58 61 61 c89 90 79 126 -39
141 -85 10 -88 12 -127 88 -19 40 -41 75 -47 79 -19 13 -52 9 -69 -9z m63
-192 c20 -40 26 -44 89 -56 l33 -7 -36 -37 c-34 -35 -36 -40 -30 -85 l7 -48
-43 22 -44 22 -44 -21 -44 -22 7 51 c7 49 6 52 -29 85 l-36 34 37 6 c54 9 66
17 86 58 10 20 20 37 23 37 2 0 13 -18 24 -39z"/>
<path d="M3739 4883 c-8 -10 -28 -46 -44 -80 -30 -67 -29 -66 -130 -79 -62 -8
-95 -28 -95 -56 0 -14 24 -46 61 -84 l62 -62 -14 -82 c-13 -84 -10 -103 23
-123 11 -8 36 0 94 30 l79 41 79 -40 c122 -62 144 -40 115 117 l-11 58 61 61
c88 89 79 128 -34 141 -91 10 -93 11 -132 88 -19 40 -41 75 -47 79 -20 13 -52
9 -67 -9z m61 -192 c20 -40 26 -44 88 -56 l33 -7 -36 -39 c-39 -43 -38 -40
-26 -91 5 -21 7 -38 5 -38 -3 0 -23 10 -46 21 l-42 21 -44 -21 -44 -22 7 49
c6 46 4 52 -24 85 -33 37 -28 47 24 47 24 0 59 35 70 71 9 26 12 25 35 -20z"/>
<path d="M4546 4878 c-8 -13 -27 -49 -42 -80 -30 -61 -29 -61 -129 -74 -62 -8
-95 -28 -95 -56 0 -14 24 -46 61 -84 l61 -62 -12 -86 c-12 -79 -12 -87 5 -106
25 -27 39 -25 119 20 l69 39 79 -40 c121 -61 145 -44 121 90 l-14 84 60 61
c88 89 79 128 -34 141 -92 10 -93 11 -135 96 -37 72 -43 79 -70 79 -20 0 -34
-7 -44 -22z m64 -187 c20 -40 26 -44 88 -56 l33 -7 -35 -39 c-35 -38 -39 -57
-20 -116 5 -17 0 -16 -48 8 l-42 21 -44 -21 -44 -22 7 49 c6 46 4 52 -25 85
l-31 36 38 7 c45 8 67 25 83 65 7 16 14 29 16 29 2 0 13 -18 24 -39z"/>
<path d="M2172 4337 c-41 -44 -16 -107 42 -107 60 0 88 68 46 110 -27 27 -62
25 -88 -3z"/>
<path d="M260 4321 c-7 -13 -10 -530 -10 -1600 l0 -1581 -109 0 c-86 0 -113
-3 -125 -16 -14 -14 -16 -78 -16 -553 0 -508 1 -539 18 -554 16 -15 48 -17
243 -17 162 0 228 3 237 12 9 9 12 132 12 493 l0 480 91 65 c117 82 239 204
359 357 51 67 97 120 101 117 4 -2 15 -27 24 -55 34 -100 12 -201 -66 -316
-31 -44 -37 -84 -16 -101 8 -7 112 -12 284 -14 246 -3 273 -5 291 -21 11 -10
23 -29 26 -43 7 -28 -16 -79 -39 -88 -9 -3 -88 -6 -174 -6 -146 0 -159 -2
-176 -20 -15 -16 -17 -26 -9 -48 l9 -27 127 -5 c139 -5 159 -14 173 -72 6 -22
1 -33 -23 -58 l-30 -30 -150 0 c-132 0 -151 -2 -165 -18 -21 -23 -22 -46 -1
-66 12 -13 38 -16 120 -16 103 0 106 -1 135 -29 37 -37 37 -65 0 -102 l-29
-29 -159 0 c-171 0 -183 -3 -183 -52 0 -39 25 -48 139 -48 113 0 144 -10 162
-52 15 -36 2 -69 -36 -94 -23 -15 -48 -16 -228 -11 -111 3 -248 11 -305 18
-94 11 -104 10 -122 -6 -11 -10 -20 -26 -20 -35 0 -53 90 -69 430 -76 242 -6
245 -5 290 18 79 41 114 121 91 207 -9 33 -9 47 -1 49 29 10 70 57 86 97 16
42 16 84 -1 140 -4 15 2 24 24 37 60 33 93 120 73 193 -10 39 -10 41 25 69 87
72 95 192 18 267 -53 53 -79 57 -307 58 -115 1 -208 3 -208 5 0 2 12 30 28 62
24 53 27 70 27 169 0 94 -3 118 -23 162 -13 28 -32 59 -43 69 -18 17 -19 45
-19 951 l0 933 1655 0 1655 0 0 -1385 0 -1385 -1235 0 -1235 0 -16 -25 c-15
-23 -15 -27 0 -50 l16 -25 1275 0 1274 0 15 22 c14 20 16 192 16 1643 0 1770
3 1665 -55 1665 -47 0 -55 -30 -55 -202 l0 -158 -2035 0 -2035 0 0 325 0 325
815 0 c802 0 815 0 835 20 24 24 25 43 4 64 -14 14 -107 16 -874 16 -839 0
-860 0 -870 -19z m750 -1765 c0 -629 -3 -937 -10 -941 -6 -4 -64 -73 -129
-153 -117 -146 -226 -257 -313 -319 -40 -28 -47 -31 -58 -18 -9 11 -33 15 -81
15 l-69 0 0 1175 0 1175 330 0 330 0 0 -934z m-600 -1986 l0 -470 -155 0 -155
0 0 470 0 470 155 0 155 0 0 -470z"/>
<path d="M615 2948 c-71 -84 48 -186 126 -109 32 33 36 58 14 100 -16 33 -33
41 -80 41 -25 0 -40 -8 -60 -32z"/>
<path d="M626 2398 c-40 -35 -43 -78 -11 -116 20 -24 35 -32 60 -32 47 0 64 8
80 41 22 42 18 67 -14 100 -36 36 -79 38 -115 7z"/>
<path d="M645 1850 c-67 -26 -68 -122 -3 -156 57 -29 114 2 125 69 5 31 1 40
-25 67 -31 30 -59 36 -97 20z"/>
<path d="M222 368 c-7 -7 -12 -39 -12 -74 0 -53 3 -65 21 -78 23 -16 47 -12
67 12 15 19 16 106 2 133 -12 22 -59 26 -78 7z"/>
<path d="M3365 3977 c-38 -32 -38 -92 0 -124 58 -50 145 -12 145 64 0 73 -88
110 -145 60z"/>
<path d="M3710 3980 c-27 -27 -35 -65 -20 -101 15 -35 37 -49 79 -49 73 0 112
91 61 145 -30 32 -90 35 -120 5z"/>
<path d="M4055 3977 c-38 -32 -38 -92 0 -124 58 -50 145 -12 145 64 0 73 -88
110 -145 60z"/>
<path d="M620 3950 c-24 -24 -25 -39 -6 -66 14 -19 37 -19 952 -22 1022 -3
984 -5 984 53 0 57 40 55 -977 55 -920 0 -933 0 -953 -20z"/>
<path d="M1692 3208 c-8 -8 -12 -49 -12 -120 0 -96 2 -108 19 -118 28 -14 38
-13 61 10 17 17 20 33 20 114 0 73 -4 98 -16 110 -18 19 -55 21 -72 4z"/>
<path d="M3949 2981 c-64 -9 -124 -23 -133 -30 -21 -18 -21 -67 1 -80 9 -5 42
-7 72 -3 l56 5 -230 -236 c-127 -130 -234 -237 -238 -237 -4 0 -126 70 -269
155 -169 101 -270 155 -284 153 -30 -4 -633 -566 -641 -597 -4 -18 0 -29 17
-43 12 -10 29 -18 36 -18 8 0 146 123 306 273 161 149 295 271 298 270 3 -1
124 -72 268 -157 143 -86 270 -156 281 -156 12 0 111 94 270 257 l252 257 -2
-57 c-1 -32 3 -63 9 -69 14 -14 60 -14 74 0 9 9 46 231 48 285 0 14 -40 47
-57 46 -10 -1 -70 -9 -134 -18z"/>
<path d="M2120 2963 c-8 -3 -45 -35 -82 -71 -71 -69 -82 -97 -52 -126 29 -29
55 -18 126 53 57 57 69 74 66 96 -3 30 -34 56 -58 48z"/>
<path d="M1282 2948 c-25 -25 -11 -54 63 -128 70 -69 76 -73 102 -64 20 7 29
17 31 38 3 24 -7 40 -64 97 -70 70 -104 85 -132 57z"/>
<path d="M1692 2818 c-5 -7 -32 -58 -60 -114 l-50 -101 -118 -16 c-64 -9 -123
-22 -130 -28 -8 -6 -14 -23 -14 -38 0 -20 20 -45 86 -107 l86 -81 -20 -119
c-18 -105 -18 -122 -6 -141 8 -13 24 -23 35 -23 11 0 65 24 121 54 l101 54
109 -54 c59 -30 114 -54 121 -54 8 0 22 9 32 20 17 19 17 24 -3 137 l-21 118
83 85 c46 47 86 93 89 102 3 9 -2 27 -11 38 -14 18 -39 25 -134 38 l-116 16
-48 99 c-27 55 -55 106 -62 114 -17 16 -56 17 -70 1z m73 -227 c19 -38 39 -72
44 -75 5 -3 43 -11 85 -18 l77 -12 -57 -57 c-62 -63 -65 -71 -45 -174 5 -27 8
-51 6 -53 -2 -2 -36 13 -75 34 l-72 37 -74 -36 c-41 -21 -76 -37 -78 -37 -1 0
3 30 10 68 7 37 13 73 14 80 0 8 -27 42 -60 76 l-60 63 76 11 c41 5 83 17 93
26 9 9 30 43 46 76 16 33 30 60 32 60 1 0 18 -31 38 -69z"/>
<path d="M3709 2344 c-12 -14 -14 -122 -17 -611 l-2 -593 -480 0 -480 0 0 270
c0 257 -1 271 -20 290 -19 19 -33 20 -248 20 -167 0 -233 -3 -245 -12 -15 -12
-17 -44 -19 -288 l-3 -275 -50 -3 c-27 -2 -55 -8 -62 -14 -19 -15 -16 -52 5
-71 17 -16 110 -17 1125 -17 1094 0 1107 0 1127 20 23 23 24 33 10 61 -9 15
-22 19 -65 19 l-55 0 0 583 c0 449 -3 588 -13 607 l-13 25 -240 3 c-215 2
-243 1 -255 -14z m411 -644 l0 -560 -160 0 -160 0 0 560 0 560 160 0 160 0 0
-560z m-1500 -320 l0 -240 -160 0 -160 0 0 240 0 240 160 0 160 0 0 -240z"/>
<path d="M2962 2028 c-9 -9 -12 -96 -12 -329 0 -312 0 -318 21 -333 12 -8 29
-12 38 -9 39 14 41 28 41 310 l0 273 160 0 160 0 0 -218 c0 -237 5 -262 55
-262 51 0 55 23 55 290 0 206 -3 249 -16 268 -15 22 -19 22 -253 22 -171 0
-240 -3 -249 -12z"/>
<path d="M3380 1350 c-40 -40 -11 -110 45 -110 32 0 65 33 65 65 0 32 -33 65
-65 65 -14 0 -34 -9 -45 -20z"/>
<path d="M1736 719 c-30 -24 -34 -57 -8 -89 35 -44 112 -17 112 39 0 32 -8 44
-37 60 -30 15 -36 14 -67 -10z"/>
</g>
</svg>
